<?xml version="1.0" encoding="UTF-8"?>
<svg xmlns="http://www.w3.org/2000/svg" xmlns:xlink="http://www.w3.org/1999/xlink" width="334pt" height="175pt" viewBox="0 0 334 175" version="1.1">
<g id="surface1">
<path style=" stroke:none;fill-rule:nonzero;fill:rgb(0%,0%,0%);fill-opacity:1;" d="M 9.453125 156.382812 L 9.453125 158.042969 L 8.339844 158.042969 C 8.613281 157.320312 8.886719 156.5 9.121094 155.582031 L 11.289062 155.582031 L 11.289062 154.820312 L 9.316406 154.820312 C 9.414062 154.371094 9.511719 153.882812 9.628906 153.375 L 8.886719 153.21875 C 8.769531 153.765625 8.671875 154.3125 8.554688 154.820312 L 7.441406 154.820312 L 7.441406 155.582031 L 8.378906 155.582031 C 8.125 156.578125 7.851562 157.4375 7.519531 158.101562 L 7.695312 158.785156 L 9.453125 158.785156 L 9.453125 160.464844 C 8.789062 160.582031 8.105469 160.699219 7.363281 160.777344 L 7.460938 161.578125 C 8.144531 161.460938 8.808594 161.363281 9.453125 161.226562 L 9.453125 163.570312 L 10.195312 163.570312 L 10.195312 161.070312 L 11.269531 160.796875 L 11.269531 160.035156 C 10.9375 160.113281 10.585938 160.210938 10.195312 160.308594 L 10.195312 158.785156 L 11.230469 158.785156 L 11.230469 158.042969 L 10.195312 158.042969 L 10.195312 156.382812 Z M 12.773438 155.796875 L 12.773438 156.460938 L 15.996094 156.460938 L 15.996094 155.796875 L 12.773438 155.796875 C 13.339844 155.25 13.886719 154.644531 14.414062 154 C 15.273438 155.09375 16.230469 156.03125 17.285156 156.792969 L 17.714844 156.167969 C 16.699219 155.445312 15.703125 154.488281 14.707031 153.277344 L 14.140625 153.277344 C 13.222656 154.390625 12.1875 155.386719 11.035156 156.226562 L 11.484375 156.910156 C 11.914062 156.558594 12.34375 156.1875 12.773438 155.796875 Z M 13.554688 163.492188 C 14.101562 163.492188 14.394531 163.199219 14.394531 162.613281 L 14.394531 157.359375 L 11.738281 157.359375 L 11.738281 163.570312 L 12.441406 163.570312 L 12.441406 161.460938 L 13.710938 161.460938 L 13.710938 162.476562 C 13.710938 162.710938 13.574219 162.847656 13.339844 162.847656 L 12.832031 162.828125 L 13.007812 163.492188 Z M 12.441406 160.835938 L 12.441406 159.761719 L 13.710938 159.761719 L 13.710938 160.835938 Z M 12.441406 159.136719 L 12.441406 158.023438 L 13.710938 158.023438 L 13.710938 159.136719 Z M 15.058594 157.671875 L 15.058594 161.714844 L 15.703125 161.714844 L 15.703125 157.671875 Z M 16.289062 163.511719 C 16.835938 163.511719 17.109375 163.179688 17.109375 162.535156 L 17.109375 157.164062 L 16.40625 157.164062 L 16.40625 162.359375 C 16.40625 162.671875 16.289062 162.847656 16.035156 162.847656 C 15.761719 162.847656 15.46875 162.828125 15.175781 162.789062 L 15.332031 163.511719 Z M 16.289062 163.511719 "/>
<path style=" stroke:none;fill-rule:nonzero;fill:rgb(0%,0%,0%);fill-opacity:1;" d="M 23.261719 155.855469 C 22.539062 158.84375 20.976562 161.148438 18.554688 162.710938 L 19.042969 163.414062 C 21.40625 161.871094 22.96875 159.664062 23.710938 156.792969 C 23.769531 156.929688 23.808594 157.085938 23.886719 157.28125 C 25.039062 160.25 26.523438 162.300781 28.359375 163.394531 L 28.867188 162.75 C 27.070312 161.636719 25.664062 159.722656 24.609375 157.046875 C 23.925781 155.210938 23.066406 153.941406 22.070312 153.238281 L 21.40625 153.667969 C 22.109375 154.195312 22.734375 154.917969 23.261719 155.855469 Z M 23.261719 155.855469 "/>
<path style=" stroke:none;fill-rule:nonzero;fill:rgb(0%,0%,0%);fill-opacity:1;" d="M 33.027344 157.554688 L 33.027344 158.277344 L 39.121094 158.277344 L 39.121094 157.554688 Z M 32.226562 159.390625 L 32.226562 160.132812 L 34.6875 160.132812 C 33.90625 161.402344 33.242188 162.183594 32.753906 162.476562 C 32.695312 162.496094 32.65625 162.535156 32.578125 162.554688 L 32.753906 163.238281 C 34.882812 163.101562 36.835938 162.90625 38.613281 162.671875 C 38.847656 162.945312 39.042969 163.238281 39.238281 163.53125 L 39.882812 163.082031 C 39.394531 162.359375 38.671875 161.5 37.753906 160.523438 L 37.148438 160.894531 C 37.480469 161.285156 37.8125 161.65625 38.125 162.027344 C 36.679688 162.242188 35.214844 162.398438 33.730469 162.496094 C 34.257812 162.027344 34.863281 161.226562 35.546875 160.132812 L 39.863281 160.132812 L 39.863281 159.390625 Z M 38.496094 154.449219 L 38.496094 155.757812 L 31.875 155.757812 L 31.875 154.449219 Z M 31.875 156.480469 L 39.277344 156.480469 L 39.277344 153.6875 L 31.09375 153.6875 L 31.09375 157.417969 C 31.074219 159.683594 30.683594 161.519531 29.902344 162.945312 L 30.488281 163.492188 C 31.40625 161.792969 31.875 159.761719 31.875 157.417969 Z M 31.875 156.480469 "/>
<path style=" stroke:none;fill-rule:nonzero;fill:rgb(0%,0%,0%);fill-opacity:1;" d="M 16.835938 89.867188 L 16.835938 86.039062 L 15.058594 86.039062 C 15.410156 85.648438 15.742188 85.160156 16.09375 84.613281 L 16.09375 84.007812 L 13.476562 84.007812 C 13.59375 83.792969 13.710938 83.539062 13.789062 83.285156 L 12.988281 83.1875 C 12.597656 84.222656 11.855469 85.082031 10.761719 85.804688 L 11.230469 86.429688 C 11.367188 86.332031 11.503906 86.234375 11.660156 86.117188 L 11.660156 86.761719 L 16.054688 86.761719 L 16.054688 87.621094 L 11.503906 87.621094 L 11.503906 88.324219 L 16.054688 88.324219 L 16.054688 89.164062 L 11.25 89.164062 L 11.25 89.867188 Z M 13.046875 84.710938 L 15.195312 84.710938 C 14.863281 85.21875 14.53125 85.667969 14.199219 86.039062 L 11.757812 86.039062 C 12.246094 85.648438 12.675781 85.21875 13.046875 84.710938 Z M 7.8125 83.695312 L 7.8125 93.558594 L 8.613281 93.558594 L 8.613281 84.457031 L 10.234375 84.457031 C 9.960938 85.414062 9.589844 86.46875 9.121094 87.640625 C 9.726562 88.597656 10.019531 89.476562 10.019531 90.238281 C 10.019531 90.472656 9.960938 90.648438 9.882812 90.746094 C 9.785156 90.84375 9.589844 90.902344 9.316406 90.921875 C 9.199219 90.921875 9.042969 90.902344 8.886719 90.882812 L 9.140625 91.703125 C 9.785156 91.703125 10.253906 91.566406 10.527344 91.292969 C 10.703125 91.078125 10.800781 90.726562 10.800781 90.238281 C 10.761719 89.4375 10.46875 88.519531 9.921875 87.523438 C 10.351562 86.410156 10.722656 85.355469 11.035156 84.339844 L 11.035156 83.695312 Z M 16.679688 90.335938 L 15.976562 90.570312 C 16.367188 91.253906 16.738281 92.035156 17.070312 92.914062 L 17.734375 92.601562 C 17.421875 91.800781 17.070312 91.058594 16.679688 90.335938 Z M 11.347656 90.550781 C 11.171875 91.351562 10.898438 92.09375 10.527344 92.757812 L 11.191406 93.1875 C 11.5625 92.484375 11.855469 91.664062 12.070312 90.707031 Z M 15.078125 93.460938 C 15.410156 93.460938 15.664062 93.382812 15.820312 93.246094 C 16.015625 93.070312 16.152344 92.601562 16.210938 91.839844 L 15.507812 91.605469 C 15.46875 92.152344 15.410156 92.484375 15.332031 92.601562 C 15.253906 92.679688 15.117188 92.738281 14.941406 92.738281 L 13.730469 92.738281 C 13.457031 92.738281 13.320312 92.5625 13.320312 92.25 L 13.320312 90.414062 L 12.558594 90.414062 L 12.558594 92.425781 C 12.558594 93.109375 12.871094 93.460938 13.496094 93.460938 Z M 14.335938 90.160156 L 13.769531 90.53125 C 14.179688 91.019531 14.511719 91.449219 14.746094 91.859375 L 15.351562 91.429688 C 15.117188 91.078125 14.765625 90.648438 14.335938 90.160156 Z M 14.335938 90.160156 "/>
<path style=" stroke:none;fill-rule:nonzero;fill:rgb(0%,0%,0%);fill-opacity:1;" d="M 18.847656 83.949219 L 18.847656 84.671875 L 21.484375 84.671875 L 21.484375 85.433594 L 22.304688 85.433594 L 22.304688 84.671875 L 25.195312 84.671875 L 25.195312 85.453125 L 25.898438 85.453125 L 25.898438 85.902344 L 20.820312 85.902344 L 20.820312 87.425781 L 19.804688 87.425781 L 19.804688 85.53125 L 19.101562 85.53125 L 19.101562 88.089844 L 20.820312 88.089844 L 20.820312 89.222656 L 18.632812 89.222656 L 18.632812 89.90625 L 19.277344 89.90625 C 19.238281 91.214844 18.984375 92.113281 18.535156 92.621094 L 19.101562 93.050781 C 19.589844 92.464844 19.882812 91.410156 19.921875 89.90625 L 20.820312 89.90625 L 20.820312 90.023438 C 20.800781 91.3125 20.605469 92.308594 20.195312 93.03125 L 20.78125 93.558594 C 21.269531 92.660156 21.542969 91.488281 21.5625 90.023438 L 21.5625 86.605469 L 25.917969 86.605469 C 25.957031 88.070312 26.074219 89.261719 26.25 90.179688 C 26.308594 90.550781 26.40625 90.902344 26.503906 91.234375 C 26.191406 91.761719 25.820312 92.191406 25.390625 92.5625 L 25.390625 92.09375 L 24.394531 92.09375 L 24.394531 91.039062 L 25.390625 91.039062 L 25.390625 88.890625 L 24.394531 88.890625 L 24.394531 87.914062 L 25.390625 87.914062 L 25.390625 87.269531 L 22.1875 87.269531 L 22.1875 92.757812 L 25.136719 92.757812 L 24.941406 92.875 L 25.332031 93.480469 C 25.878906 93.148438 26.386719 92.679688 26.816406 92.09375 C 26.894531 92.328125 26.992188 92.523438 27.109375 92.699219 C 27.441406 93.226562 27.773438 93.519531 28.066406 93.519531 C 28.417969 93.519531 28.691406 92.816406 28.886719 91.429688 L 28.300781 91.097656 C 28.203125 92.113281 28.066406 92.621094 27.929688 92.621094 C 27.8125 92.621094 27.636719 92.40625 27.441406 91.976562 C 27.363281 91.820312 27.285156 91.625 27.226562 91.410156 C 27.753906 90.394531 28.105469 89.105469 28.28125 87.503906 L 27.597656 87.347656 C 27.480469 88.460938 27.265625 89.4375 26.953125 90.257812 C 26.933594 90.160156 26.914062 90.023438 26.894531 89.886719 C 26.757812 89.125 26.660156 88.03125 26.621094 86.605469 L 28.730469 86.605469 L 28.730469 85.902344 L 28.164062 85.902344 C 28.066406 85.550781 27.929688 85.238281 27.832031 84.964844 L 27.128906 85.0625 C 27.265625 85.335938 27.402344 85.609375 27.5 85.902344 L 26.601562 85.902344 L 26.601562 85.277344 L 26.035156 85.277344 L 26.035156 84.671875 L 28.652344 84.671875 L 28.652344 83.949219 L 26.035156 83.949219 L 26.035156 83.246094 L 25.195312 83.246094 L 25.195312 83.949219 L 22.304688 83.949219 L 22.304688 83.226562 L 21.484375 83.226562 L 21.484375 83.949219 Z M 23.769531 87.914062 L 23.769531 88.890625 L 22.851562 88.890625 L 22.851562 87.914062 Z M 22.851562 89.496094 L 24.746094 89.496094 L 24.746094 90.414062 L 22.851562 90.414062 Z M 22.851562 91.039062 L 23.769531 91.039062 L 23.769531 92.09375 L 22.851562 92.09375 Z M 22.851562 91.039062 "/>
<path style=" stroke:none;fill-rule:nonzero;fill:rgb(0%,0%,0%);fill-opacity:1;" d="M 33.027344 87.542969 L 33.027344 88.265625 L 39.121094 88.265625 L 39.121094 87.542969 Z M 32.226562 89.378906 L 32.226562 90.121094 L 34.6875 90.121094 C 33.90625 91.390625 33.242188 92.171875 32.753906 92.464844 C 32.695312 92.484375 32.65625 92.523438 32.578125 92.542969 L 32.753906 93.226562 C 34.882812 93.089844 36.835938 92.894531 38.613281 92.660156 C 38.847656 92.933594 39.042969 93.226562 39.238281 93.519531 L 39.882812 93.070312 C 39.394531 92.347656 38.671875 91.488281 37.753906 90.511719 L 37.148438 90.882812 C 37.480469 91.273438 37.8125 91.644531 38.125 92.015625 C 36.679688 92.230469 35.214844 92.386719 33.730469 92.484375 C 34.257812 92.015625 34.863281 91.214844 35.546875 90.121094 L 39.863281 90.121094 L 39.863281 89.378906 Z M 38.496094 84.4375 L 38.496094 85.746094 L 31.875 85.746094 L 31.875 84.4375 Z M 31.875 86.46875 L 39.277344 86.46875 L 39.277344 83.675781 L 31.09375 83.675781 L 31.09375 87.40625 C 31.074219 89.671875 30.683594 91.507812 29.902344 92.933594 L 30.488281 93.480469 C 31.40625 91.78125 31.875 89.75 31.875 87.40625 Z M 31.875 86.46875 "/>
<path style=" stroke:none;fill-rule:nonzero;fill:rgb(0%,0%,0%);fill-opacity:1;" d="M 9.453125 15.488281 L 9.453125 17.148438 L 8.339844 17.148438 C 8.613281 16.425781 8.886719 15.605469 9.121094 14.6875 L 11.289062 14.6875 L 11.289062 13.925781 L 9.316406 13.925781 C 9.414062 13.476562 9.511719 12.988281 9.628906 12.480469 L 8.886719 12.324219 C 8.769531 12.871094 8.671875 13.417969 8.554688 13.925781 L 7.441406 13.925781 L 7.441406 14.6875 L 8.378906 14.6875 C 8.125 15.683594 7.851562 16.542969 7.519531 17.207031 L 7.695312 17.890625 L 9.453125 17.890625 L 9.453125 19.570312 C 8.789062 19.6875 8.105469 19.804688 7.363281 19.882812 L 7.460938 20.683594 C 8.144531 20.566406 8.808594 20.46875 9.453125 20.332031 L 9.453125 22.675781 L 10.195312 22.675781 L 10.195312 20.175781 L 11.269531 19.902344 L 11.269531 19.140625 C 10.9375 19.21875 10.585938 19.316406 10.195312 19.414062 L 10.195312 17.890625 L 11.230469 17.890625 L 11.230469 17.148438 L 10.195312 17.148438 L 10.195312 15.488281 Z M 12.773438 14.902344 L 12.773438 15.566406 L 15.996094 15.566406 L 15.996094 14.902344 L 12.773438 14.902344 C 13.339844 14.355469 13.886719 13.75 14.414062 13.105469 C 15.273438 14.199219 16.230469 15.136719 17.285156 15.898438 L 17.714844 15.273438 C 16.699219 14.550781 15.703125 13.59375 14.707031 12.382812 L 14.140625 12.382812 C 13.222656 13.496094 12.1875 14.492188 11.035156 15.332031 L 11.484375 16.015625 C 11.914062 15.664062 12.34375 15.292969 12.773438 14.902344 Z M 13.554688 22.597656 C 14.101562 22.597656 14.394531 22.304688 14.394531 21.71875 L 14.394531 16.464844 L 11.738281 16.464844 L 11.738281 22.675781 L 12.441406 22.675781 L 12.441406 20.566406 L 13.710938 20.566406 L 13.710938 21.582031 C 13.710938 21.816406 13.574219 21.953125 13.339844 21.953125 L 12.832031 21.933594 L 13.007812 22.597656 Z M 12.441406 19.941406 L 12.441406 18.867188 L 13.710938 18.867188 L 13.710938 19.941406 Z M 12.441406 18.242188 L 12.441406 17.128906 L 13.710938 17.128906 L 13.710938 18.242188 Z M 15.058594 16.777344 L 15.058594 20.820312 L 15.703125 20.820312 L 15.703125 16.777344 Z M 16.289062 22.617188 C 16.835938 22.617188 17.109375 22.285156 17.109375 21.640625 L 17.109375 16.269531 L 16.40625 16.269531 L 16.40625 21.464844 C 16.40625 21.777344 16.289062 21.953125 16.035156 21.953125 C 15.761719 21.953125 15.46875 21.933594 15.175781 21.894531 L 15.332031 22.617188 Z M 16.289062 22.617188 "/>
<path style=" stroke:none;fill-rule:nonzero;fill:rgb(0%,0%,0%);fill-opacity:1;" d="M 26.796875 16.269531 L 24.160156 16.269531 L 24.160156 12.34375 L 23.339844 12.34375 L 23.339844 16.269531 L 20.703125 16.269531 L 20.703125 13.203125 L 19.882812 13.203125 L 19.882812 17.050781 L 23.339844 17.050781 L 23.339844 21.191406 L 20.15625 21.191406 L 20.15625 18.105469 L 19.335938 18.105469 L 19.335938 22.597656 L 20.15625 22.597656 L 20.15625 21.953125 L 27.34375 21.953125 L 27.34375 22.597656 L 28.164062 22.597656 L 28.164062 18.105469 L 27.34375 18.105469 L 27.34375 21.191406 L 24.160156 21.191406 L 24.160156 17.050781 L 27.617188 17.050781 L 27.617188 13.203125 L 26.796875 13.203125 Z M 26.796875 16.269531 "/>
<path style=" stroke:none;fill-rule:nonzero;fill:rgb(0%,0%,0%);fill-opacity:1;" d="M 33.027344 16.660156 L 33.027344 17.382812 L 39.121094 17.382812 L 39.121094 16.660156 Z M 32.226562 18.496094 L 32.226562 19.238281 L 34.6875 19.238281 C 33.90625 20.507812 33.242188 21.289062 32.753906 21.582031 C 32.695312 21.601562 32.65625 21.640625 32.578125 21.660156 L 32.753906 22.34375 C 34.882812 22.207031 36.835938 22.011719 38.613281 21.777344 C 38.847656 22.050781 39.042969 22.34375 39.238281 22.636719 L 39.882812 22.1875 C 39.394531 21.464844 38.671875 20.605469 37.753906 19.628906 L 37.148438 20 C 37.480469 20.390625 37.8125 20.761719 38.125 21.132812 C 36.679688 21.347656 35.214844 21.503906 33.730469 21.601562 C 34.257812 21.132812 34.863281 20.332031 35.546875 19.238281 L 39.863281 19.238281 L 39.863281 18.496094 Z M 38.496094 13.554688 L 38.496094 14.863281 L 31.875 14.863281 L 31.875 13.554688 Z M 31.875 15.585938 L 39.277344 15.585938 L 39.277344 12.792969 L 31.09375 12.792969 L 31.09375 16.523438 C 31.074219 18.789062 30.683594 20.625 29.902344 22.050781 L 30.488281 22.597656 C 31.40625 20.898438 31.875 18.867188 31.875 16.523438 Z M 31.875 15.585938 "/>
<path style="fill-rule:nonzero;fill:rgb(69.803922%,85.098039%,100%);fill-opacity:1;stroke-width:0.929626;stroke-linecap:round;stroke-linejoin:round;stroke:rgb(0%,0%,0%);stroke-opacity:1;stroke-miterlimit:10;" d="M 139.96875 137.765625 C 144.596875 142.39375 144.596875 149.9 139.96875 154.528125 C 135.340625 159.15625 127.8375 159.15625 123.20625 154.528125 C 118.578125 149.9 118.578125 142.39375 123.20625 137.765625 C 127.8375 133.1375 135.340625 133.1375 139.96875 137.765625 " transform="matrix(1.25,0,0,1.25,-43.75,-23.75)"/>
<path style=" stroke:none;fill-rule:nonzero;fill:rgb(0%,0%,0%);fill-opacity:1;" d="M 119.097656 156.824219 C 118.941406 156.042969 118.804688 155.847656 118.53125 155.847656 C 118.257812 155.847656 117.886719 155.925781 117.203125 156.179688 L 117.085938 156.21875 L 117.125 156.394531 L 117.320312 156.335938 C 117.535156 156.277344 117.671875 156.257812 117.75 156.257812 C 118.042969 156.257812 118.121094 156.355469 118.277344 157.019531 L 118.589844 158.425781 L 117.671875 159.734375 C 117.4375 160.066406 117.222656 160.28125 117.085938 160.28125 C 117.027344 160.28125 116.910156 160.242188 116.792969 160.183594 C 116.65625 160.105469 116.539062 160.046875 116.441406 160.046875 C 116.226562 160.046875 116.050781 160.242188 116.050781 160.457031 C 116.050781 160.75 116.265625 160.925781 116.617188 160.925781 C 116.96875 160.925781 117.203125 160.828125 117.691406 160.164062 L 118.6875 158.835938 L 119 160.164062 C 119.136719 160.730469 119.3125 160.925781 119.664062 160.925781 C 120.09375 160.925781 120.386719 160.671875 121.050781 159.65625 L 120.875 159.539062 C 120.777344 159.65625 120.738281 159.734375 120.640625 159.871094 C 120.386719 160.203125 120.25 160.320312 120.113281 160.320312 C 119.957031 160.320312 119.859375 160.164062 119.78125 159.851562 L 119.410156 158.347656 C 119.351562 158.074219 119.3125 157.917969 119.3125 157.839844 C 119.820312 156.980469 120.230469 156.472656 120.425781 156.472656 C 120.699219 156.472656 120.796875 156.667969 121.011719 156.667969 C 121.226562 156.667969 121.382812 156.492188 121.382812 156.257812 C 121.382812 156.023438 121.207031 155.847656 120.933594 155.847656 C 120.445312 155.847656 120.015625 156.257812 119.234375 157.449219 Z M 119.097656 156.824219 "/>
<path style=" stroke:none;fill-rule:nonzero;fill:rgb(0%,0%,0%);fill-opacity:1;" d="M 124.308594 164.558594 L 124.308594 164.441406 C 123.742188 164.441406 123.605469 164.304688 123.605469 163.992188 L 123.605469 159.519531 L 123.527344 159.480469 L 122.199219 160.164062 L 122.199219 160.28125 L 122.394531 160.203125 C 122.53125 160.144531 122.648438 160.105469 122.726562 160.105469 C 122.882812 160.105469 122.960938 160.222656 122.960938 160.476562 L 122.960938 163.855469 C 122.960938 164.265625 122.804688 164.421875 122.238281 164.441406 L 122.238281 164.558594 Z M 124.308594 164.558594 "/>
<path style="fill-rule:nonzero;fill:rgb(69.803922%,85.098039%,100%);fill-opacity:1;stroke-width:0.929626;stroke-linecap:round;stroke-linejoin:round;stroke:rgb(0%,0%,0%);stroke-opacity:1;stroke-miterlimit:10;" d="M 189.125 137.765625 C 193.753125 142.39375 193.753125 149.9 189.125 154.528125 C 184.496875 159.15625 176.99375 159.15625 172.3625 154.528125 C 167.734375 149.9 167.734375 142.39375 172.3625 137.765625 C 176.99375 133.1375 184.496875 133.1375 189.125 137.765625 " transform="matrix(1.25,0,0,1.25,-43.75,-23.75)"/>
<path style=" stroke:none;fill-rule:nonzero;fill:rgb(0%,0%,0%);fill-opacity:1;" d="M 180.539062 156.824219 C 180.382812 156.042969 180.246094 155.847656 179.972656 155.847656 C 179.699219 155.847656 179.328125 155.925781 178.644531 156.179688 L 178.527344 156.21875 L 178.566406 156.394531 L 178.761719 156.335938 C 178.976562 156.277344 179.113281 156.257812 179.191406 156.257812 C 179.484375 156.257812 179.5625 156.355469 179.71875 157.019531 L 180.03125 158.425781 L 179.113281 159.734375 C 178.878906 160.066406 178.664062 160.28125 178.527344 160.28125 C 178.46875 160.28125 178.351562 160.242188 178.234375 160.183594 C 178.097656 160.105469 177.980469 160.046875 177.882812 160.046875 C 177.667969 160.046875 177.492188 160.242188 177.492188 160.457031 C 177.492188 160.75 177.707031 160.925781 178.058594 160.925781 C 178.410156 160.925781 178.644531 160.828125 179.132812 160.164062 L 180.128906 158.835938 L 180.441406 160.164062 C 180.578125 160.730469 180.753906 160.925781 181.105469 160.925781 C 181.535156 160.925781 181.828125 160.671875 182.492188 159.65625 L 182.316406 159.539062 C 182.21875 159.65625 182.179688 159.734375 182.082031 159.871094 C 181.828125 160.203125 181.691406 160.320312 181.554688 160.320312 C 181.398438 160.320312 181.300781 160.164062 181.222656 159.851562 L 180.851562 158.347656 C 180.792969 158.074219 180.753906 157.917969 180.753906 157.839844 C 181.261719 156.980469 181.671875 156.472656 181.867188 156.472656 C 182.140625 156.472656 182.238281 156.667969 182.453125 156.667969 C 182.667969 156.667969 182.824219 156.492188 182.824219 156.257812 C 182.824219 156.023438 182.648438 155.847656 182.375 155.847656 C 181.886719 155.847656 181.457031 156.257812 180.675781 157.449219 Z M 180.539062 156.824219 "/>
<path style=" stroke:none;fill-rule:nonzero;fill:rgb(0%,0%,0%);fill-opacity:1;" d="M 186.355469 163.523438 L 186.257812 163.484375 C 186.003906 163.914062 185.847656 163.992188 185.535156 163.992188 L 183.777344 163.992188 L 185.007812 162.664062 C 185.671875 161.960938 185.964844 161.394531 185.964844 160.808594 C 185.964844 160.066406 185.4375 159.480469 184.578125 159.480469 C 183.660156 159.480469 183.191406 160.105469 183.035156 160.984375 L 183.191406 161.023438 C 183.484375 160.28125 183.738281 160.046875 184.285156 160.046875 C 184.929688 160.046875 185.320312 160.417969 185.320312 161.101562 C 185.320312 161.746094 185.066406 162.3125 184.34375 163.054688 L 183.015625 164.460938 L 183.015625 164.558594 L 185.945312 164.558594 Z M 186.355469 163.523438 "/>
<path style="fill-rule:nonzero;fill:rgb(40%,74.901961%,100%);fill-opacity:1;stroke-width:0.929626;stroke-linecap:round;stroke-linejoin:round;stroke:rgb(0%,0%,0%);stroke-opacity:1;stroke-miterlimit:10;" d="M 170.65 81.059375 C 175.278125 85.6875 175.278125 93.190625 170.65 97.81875 C 166.01875 102.45 158.515625 102.45 153.8875 97.81875 C 149.25625 93.190625 149.25625 85.6875 153.8875 81.059375 C 158.515625 76.43125 166.01875 76.43125 170.65 81.059375 " transform="matrix(1.25,0,0,1.25,-43.75,-23.75)"/>
<path style=" stroke:none;fill-rule:nonzero;fill:rgb(0%,0%,0%);fill-opacity:1;" d="M 159.628906 88.597656 C 159.023438 89.359375 158.886719 89.496094 158.710938 89.496094 C 158.59375 89.496094 158.515625 89.417969 158.515625 89.300781 C 158.515625 89.164062 158.710938 88.480469 158.886719 87.894531 C 159.238281 86.839844 159.433594 86 159.433594 85.726562 C 159.433594 85.296875 159.21875 84.964844 158.710938 84.964844 C 158.007812 84.964844 157.128906 85.6875 156.113281 87.347656 L 157.480469 82.308594 L 157.402344 82.25 C 156.738281 82.386719 156.308594 82.464844 155.625 82.542969 L 155.625 82.71875 L 155.9375 82.71875 C 156.132812 82.71875 156.40625 82.796875 156.40625 82.992188 C 156.40625 83.148438 156.347656 83.34375 156.25 83.695312 L 154.609375 89.925781 L 155.449219 89.925781 C 155.898438 88.1875 156.074219 87.796875 156.523438 87.113281 C 157.109375 86.214844 157.832031 85.53125 158.242188 85.53125 C 158.496094 85.53125 158.554688 85.648438 158.554688 85.824219 C 158.554688 85.863281 158.515625 86.019531 158.476562 86.195312 L 157.851562 88.519531 C 157.714844 89.066406 157.636719 89.417969 157.636719 89.554688 C 157.636719 89.847656 157.832031 90.023438 158.125 90.023438 C 158.710938 90.023438 159.082031 89.730469 159.765625 88.753906 Z M 159.628906 88.597656 "/>
<path style=" stroke:none;fill-rule:nonzero;fill:rgb(0%,0%,0%);fill-opacity:1;" d="M 163.574219 92.640625 L 163.476562 92.601562 C 163.222656 93.03125 163.066406 93.109375 162.753906 93.109375 L 160.996094 93.109375 L 162.226562 91.78125 C 162.890625 91.078125 163.183594 90.511719 163.183594 89.925781 C 163.183594 89.183594 162.65625 88.597656 161.796875 88.597656 C 160.878906 88.597656 160.410156 89.222656 160.253906 90.101562 L 160.410156 90.140625 C 160.703125 89.398438 160.957031 89.164062 161.503906 89.164062 C 162.148438 89.164062 162.539062 89.535156 162.539062 90.21875 C 162.539062 90.863281 162.285156 91.429688 161.5625 92.171875 L 160.234375 93.578125 L 160.234375 93.675781 L 163.164062 93.675781 Z M 163.574219 92.640625 "/>
<path style="fill-rule:nonzero;fill:rgb(69.803922%,85.098039%,100%);fill-opacity:1;stroke-width:0.929626;stroke-linecap:round;stroke-linejoin:round;stroke:rgb(0%,0%,0%);stroke-opacity:1;stroke-miterlimit:10;" d="M 238.278125 137.765625 C 242.90625 142.39375 242.90625 149.9 238.278125 154.528125 C 233.65 159.15625 226.14375 159.15625 221.515625 154.528125 C 216.8875 149.9 216.8875 142.39375 221.515625 137.765625 C 226.14375 133.1375 233.65 133.1375 238.278125 137.765625 " transform="matrix(1.25,0,0,1.25,-43.75,-23.75)"/>
<path style=" stroke:none;fill-rule:nonzero;fill:rgb(0%,0%,0%);fill-opacity:1;" d="M 241.984375 156.824219 C 241.828125 156.042969 241.691406 155.847656 241.417969 155.847656 C 241.144531 155.847656 240.773438 155.925781 240.089844 156.179688 L 239.972656 156.21875 L 240.011719 156.394531 L 240.207031 156.335938 C 240.421875 156.277344 240.558594 156.257812 240.636719 156.257812 C 240.929688 156.257812 241.007812 156.355469 241.164062 157.019531 L 241.476562 158.425781 L 240.558594 159.734375 C 240.324219 160.066406 240.109375 160.28125 239.972656 160.28125 C 239.914062 160.28125 239.796875 160.242188 239.679688 160.183594 C 239.542969 160.105469 239.425781 160.046875 239.328125 160.046875 C 239.113281 160.046875 238.9375 160.242188 238.9375 160.457031 C 238.9375 160.75 239.152344 160.925781 239.503906 160.925781 C 239.855469 160.925781 240.089844 160.828125 240.578125 160.164062 L 241.574219 158.835938 L 241.886719 160.164062 C 242.023438 160.730469 242.199219 160.925781 242.550781 160.925781 C 242.980469 160.925781 243.273438 160.671875 243.9375 159.65625 L 243.761719 159.539062 C 243.664062 159.65625 243.625 159.734375 243.527344 159.871094 C 243.273438 160.203125 243.136719 160.320312 243 160.320312 C 242.84375 160.320312 242.746094 160.164062 242.667969 159.851562 L 242.296875 158.347656 C 242.238281 158.074219 242.199219 157.917969 242.199219 157.839844 C 242.707031 156.980469 243.117188 156.472656 243.3125 156.472656 C 243.585938 156.472656 243.683594 156.667969 243.898438 156.667969 C 244.113281 156.667969 244.269531 156.492188 244.269531 156.257812 C 244.269531 156.023438 244.09375 155.847656 243.820312 155.847656 C 243.332031 155.847656 242.902344 156.257812 242.121094 157.449219 Z M 241.984375 156.824219 "/>
<path style=" stroke:none;fill-rule:nonzero;fill:rgb(0%,0%,0%);fill-opacity:1;" d="M 244.691406 160.730469 C 245.003906 160.183594 245.355469 159.929688 245.824219 159.929688 C 246.3125 159.929688 246.625 160.203125 246.625 160.710938 C 246.625 161.160156 246.390625 161.492188 246.019531 161.707031 C 245.863281 161.804688 245.667969 161.882812 245.394531 161.980469 L 245.394531 162.078125 C 245.824219 162.078125 245.980469 162.097656 246.15625 162.15625 C 246.664062 162.3125 246.9375 162.683594 246.9375 163.25 C 246.9375 163.875 246.507812 164.402344 245.960938 164.402344 C 245.746094 164.402344 245.589844 164.363281 245.316406 164.167969 C 245.101562 164.011719 244.984375 163.972656 244.847656 163.972656 C 244.691406 163.972656 244.554688 164.070312 244.554688 164.226562 C 244.554688 164.5 244.847656 164.65625 245.394531 164.65625 C 246.058594 164.65625 246.761719 164.441406 247.132812 163.972656 C 247.347656 163.679688 247.484375 163.308594 247.484375 162.917969 C 247.484375 162.527344 247.347656 162.175781 247.152344 161.941406 C 246.996094 161.785156 246.859375 161.6875 246.527344 161.550781 C 247.015625 161.257812 247.210938 160.867188 247.210938 160.515625 C 247.210938 159.910156 246.742188 159.480469 246.058594 159.480469 C 245.277344 159.480469 244.789062 159.988281 244.574219 160.710938 Z M 244.691406 160.730469 "/>
<path style="fill-rule:nonzero;fill:rgb(69.803922%,85.098039%,100%);fill-opacity:1;stroke-width:0.929626;stroke-linecap:round;stroke-linejoin:round;stroke:rgb(0%,0%,0%);stroke-opacity:1;stroke-miterlimit:10;" d="M 287.434375 137.06875 C 292.0625 141.7 292.0625 149.203125 287.434375 153.83125 C 282.80625 158.4625 275.3 158.4625 270.671875 153.83125 C 266.04375 149.203125 266.04375 141.7 270.671875 137.06875 C 275.3 132.440625 282.80625 132.440625 287.434375 137.06875 " transform="matrix(1.25,0,0,1.25,-43.75,-23.75)"/>
<path style=" stroke:none;fill-rule:nonzero;fill:rgb(0%,0%,0%);fill-opacity:1;" d="M 303.425781 155.953125 C 303.269531 155.171875 303.132812 154.976562 302.859375 154.976562 C 302.585938 154.976562 302.214844 155.054688 301.53125 155.308594 L 301.414062 155.347656 L 301.453125 155.523438 L 301.648438 155.464844 C 301.863281 155.40625 302 155.386719 302.078125 155.386719 C 302.371094 155.386719 302.449219 155.484375 302.605469 156.148438 L 302.917969 157.554688 L 302 158.863281 C 301.765625 159.195312 301.550781 159.410156 301.414062 159.410156 C 301.355469 159.410156 301.238281 159.371094 301.121094 159.3125 C 300.984375 159.234375 300.867188 159.175781 300.769531 159.175781 C 300.554688 159.175781 300.378906 159.371094 300.378906 159.585938 C 300.378906 159.878906 300.59375 160.054688 300.945312 160.054688 C 301.296875 160.054688 301.53125 159.957031 302.019531 159.292969 L 303.015625 157.964844 L 303.328125 159.292969 C 303.464844 159.859375 303.640625 160.054688 303.992188 160.054688 C 304.421875 160.054688 304.714844 159.800781 305.378906 158.785156 L 305.203125 158.667969 C 305.105469 158.785156 305.066406 158.863281 304.96875 159 C 304.714844 159.332031 304.578125 159.449219 304.441406 159.449219 C 304.285156 159.449219 304.1875 159.292969 304.109375 158.980469 L 303.738281 157.476562 C 303.679688 157.203125 303.640625 157.046875 303.640625 156.96875 C 304.148438 156.109375 304.558594 155.601562 304.753906 155.601562 C 305.027344 155.601562 305.125 155.796875 305.339844 155.796875 C 305.554688 155.796875 305.710938 155.621094 305.710938 155.386719 C 305.710938 155.152344 305.535156 154.976562 305.261719 154.976562 C 304.773438 154.976562 304.34375 155.386719 303.5625 156.578125 Z M 303.425781 155.953125 "/>
<path style=" stroke:none;fill-rule:nonzero;fill:rgb(0%,0%,0%);fill-opacity:1;" d="M 309.242188 162.4375 L 309.242188 161.949219 L 308.460938 161.949219 L 308.460938 158.609375 L 308.128906 158.609375 L 305.785156 161.949219 L 305.785156 162.4375 L 307.875 162.4375 L 307.875 163.6875 L 308.460938 163.6875 L 308.460938 162.4375 Z M 307.875 161.949219 L 306.078125 161.949219 L 307.875 159.390625 Z M 307.875 161.949219 "/>
<path style="fill-rule:nonzero;fill:rgb(40%,74.901961%,100%);fill-opacity:1;stroke-width:0.929626;stroke-linecap:round;stroke-linejoin:round;stroke:rgb(0%,0%,0%);stroke-opacity:1;stroke-miterlimit:10;" d="M 255.475 81.059375 C 260.10625 85.6875 260.10625 93.190625 255.475 97.81875 C 250.846875 102.45 243.34375 102.45 238.715625 97.81875 C 234.0875 93.190625 234.0875 85.6875 238.715625 81.059375 C 243.34375 76.43125 250.846875 76.43125 255.475 81.059375 " transform="matrix(1.25,0,0,1.25,-43.75,-23.75)"/>
<path style=" stroke:none;fill-rule:nonzero;fill:rgb(0%,0%,0%);fill-opacity:1;" d="M 265.667969 88.597656 C 265.0625 89.359375 264.925781 89.496094 264.75 89.496094 C 264.632812 89.496094 264.554688 89.417969 264.554688 89.300781 C 264.554688 89.164062 264.75 88.480469 264.925781 87.894531 C 265.277344 86.839844 265.472656 86 265.472656 85.726562 C 265.472656 85.296875 265.257812 84.964844 264.75 84.964844 C 264.046875 84.964844 263.167969 85.6875 262.152344 87.347656 L 263.519531 82.308594 L 263.441406 82.25 C 262.777344 82.386719 262.347656 82.464844 261.664062 82.542969 L 261.664062 82.71875 L 261.976562 82.71875 C 262.171875 82.71875 262.445312 82.796875 262.445312 82.992188 C 262.445312 83.148438 262.386719 83.34375 262.289062 83.695312 L 260.648438 89.925781 L 261.488281 89.925781 C 261.9375 88.1875 262.113281 87.796875 262.5625 87.113281 C 263.148438 86.214844 263.871094 85.53125 264.28125 85.53125 C 264.535156 85.53125 264.59375 85.648438 264.59375 85.824219 C 264.59375 85.863281 264.554688 86.019531 264.515625 86.195312 L 263.890625 88.519531 C 263.753906 89.066406 263.675781 89.417969 263.675781 89.554688 C 263.675781 89.847656 263.871094 90.023438 264.164062 90.023438 C 264.75 90.023438 265.121094 89.730469 265.804688 88.753906 Z M 265.667969 88.597656 "/>
<path style=" stroke:none;fill-rule:nonzero;fill:rgb(0%,0%,0%);fill-opacity:1;" d="M 269.613281 92.425781 L 269.613281 91.9375 L 268.832031 91.9375 L 268.832031 88.597656 L 268.5 88.597656 L 266.15625 91.9375 L 266.15625 92.425781 L 268.246094 92.425781 L 268.246094 93.675781 L 268.832031 93.675781 L 268.832031 92.425781 Z M 268.246094 91.9375 L 266.449219 91.9375 L 268.246094 89.378906 Z M 268.246094 91.9375 "/>
<path style="fill-rule:nonzero;fill:rgb(40%,74.901961%,100%);fill-opacity:1;stroke-width:0.929626;stroke-linecap:round;stroke-linejoin:round;stroke:rgb(0%,0%,0%);stroke-opacity:1;stroke-miterlimit:10;" d="M 213.0625 81.059375 C 217.690625 85.6875 217.690625 93.190625 213.0625 97.81875 C 208.434375 102.45 200.93125 102.45 196.3 97.81875 C 191.671875 93.190625 191.671875 85.6875 196.3 81.059375 C 200.93125 76.43125 208.434375 76.43125 213.0625 81.059375 " transform="matrix(1.25,0,0,1.25,-43.75,-23.75)"/>
<path style=" stroke:none;fill-rule:nonzero;fill:rgb(0%,0%,0%);fill-opacity:1;" d="M 212.648438 88.597656 C 212.042969 89.359375 211.90625 89.496094 211.730469 89.496094 C 211.613281 89.496094 211.535156 89.417969 211.535156 89.300781 C 211.535156 89.164062 211.730469 88.480469 211.90625 87.894531 C 212.257812 86.839844 212.453125 86 212.453125 85.726562 C 212.453125 85.296875 212.238281 84.964844 211.730469 84.964844 C 211.027344 84.964844 210.148438 85.6875 209.132812 87.347656 L 210.5 82.308594 L 210.421875 82.25 C 209.757812 82.386719 209.328125 82.464844 208.644531 82.542969 L 208.644531 82.71875 L 208.957031 82.71875 C 209.152344 82.71875 209.425781 82.796875 209.425781 82.992188 C 209.425781 83.148438 209.367188 83.34375 209.269531 83.695312 L 207.628906 89.925781 L 208.46875 89.925781 C 208.917969 88.1875 209.09375 87.796875 209.542969 87.113281 C 210.128906 86.214844 210.851562 85.53125 211.261719 85.53125 C 211.515625 85.53125 211.574219 85.648438 211.574219 85.824219 C 211.574219 85.863281 211.535156 86.019531 211.496094 86.195312 L 210.871094 88.519531 C 210.734375 89.066406 210.65625 89.417969 210.65625 89.554688 C 210.65625 89.847656 210.851562 90.023438 211.144531 90.023438 C 211.730469 90.023438 212.101562 89.730469 212.785156 88.753906 Z M 212.648438 88.597656 "/>
<path style=" stroke:none;fill-rule:nonzero;fill:rgb(0%,0%,0%);fill-opacity:1;" d="M 213.488281 89.847656 C 213.800781 89.300781 214.152344 89.046875 214.621094 89.046875 C 215.109375 89.046875 215.421875 89.320312 215.421875 89.828125 C 215.421875 90.277344 215.1875 90.609375 214.816406 90.824219 C 214.660156 90.921875 214.464844 91 214.191406 91.097656 L 214.191406 91.195312 C 214.621094 91.195312 214.777344 91.214844 214.953125 91.273438 C 215.460938 91.429688 215.734375 91.800781 215.734375 92.367188 C 215.734375 92.992188 215.304688 93.519531 214.757812 93.519531 C 214.542969 93.519531 214.386719 93.480469 214.113281 93.285156 C 213.898438 93.128906 213.78125 93.089844 213.644531 93.089844 C 213.488281 93.089844 213.351562 93.1875 213.351562 93.34375 C 213.351562 93.617188 213.644531 93.773438 214.191406 93.773438 C 214.855469 93.773438 215.558594 93.558594 215.929688 93.089844 C 216.144531 92.796875 216.28125 92.425781 216.28125 92.035156 C 216.28125 91.644531 216.144531 91.292969 215.949219 91.058594 C 215.792969 90.902344 215.65625 90.804688 215.324219 90.667969 C 215.8125 90.375 216.007812 89.984375 216.007812 89.632812 C 216.007812 89.027344 215.539062 88.597656 214.855469 88.597656 C 214.074219 88.597656 213.585938 89.105469 213.371094 89.828125 Z M 213.488281 89.847656 "/>
<path style="fill-rule:nonzero;fill:rgb(69.803922%,85.098039%,100%);fill-opacity:1;stroke-width:0.929626;stroke-linecap:round;stroke-linejoin:round;stroke:rgb(0%,0%,0%);stroke-opacity:1;stroke-miterlimit:10;" d="M 163.909375 24.35 C 168.534375 28.98125 168.534375 36.484375 163.909375 41.1125 C 159.28125 45.74375 151.775 45.74375 147.14375 41.1125 C 142.515625 36.484375 142.515625 28.98125 147.14375 24.35 C 151.775 19.721875 159.28125 19.721875 163.909375 24.35 " transform="matrix(1.25,0,0,1.25,-43.75,-23.75)"/>
<path style=" stroke:none;fill-rule:nonzero;fill:rgb(0%,0%,0%);fill-opacity:1;" d="M 151.246094 15.664062 C 151.246094 14.667969 150.5625 14.082031 149.644531 14.082031 C 149.195312 14.082031 148.746094 14.179688 148.296875 14.414062 C 147.125 15.058594 146.285156 16.347656 146.285156 17.597656 C 146.285156 18.574219 146.871094 19.160156 147.925781 19.160156 C 148.667969 19.160156 149.390625 18.886719 150.054688 18.242188 C 150.796875 17.5 151.246094 16.503906 151.246094 15.664062 Z M 150.289062 15.371094 C 150.289062 16.230469 149.976562 17.285156 149.46875 17.988281 C 149.019531 18.613281 148.589844 18.925781 148.101562 18.925781 C 147.574219 18.925781 147.222656 18.574219 147.222656 17.910156 C 147.222656 17.011719 147.535156 16.132812 148.0625 15.332031 C 148.511719 14.667969 149 14.316406 149.488281 14.316406 C 149.976562 14.316406 150.289062 14.6875 150.289062 15.371094 Z M 150.289062 15.371094 "/>
<path style=" stroke:none;fill-rule:nonzero;fill:rgb(0%,0%,0%);fill-opacity:1;" d="M 154.546875 22.792969 L 154.546875 22.675781 C 153.980469 22.675781 153.84375 22.539062 153.84375 22.226562 L 153.84375 17.753906 L 153.765625 17.714844 L 152.4375 18.398438 L 152.4375 18.515625 L 152.632812 18.4375 C 152.769531 18.378906 152.886719 18.339844 152.964844 18.339844 C 153.121094 18.339844 153.199219 18.457031 153.199219 18.710938 L 153.199219 22.089844 C 153.199219 22.5 153.042969 22.65625 152.476562 22.675781 L 152.476562 22.792969 Z M 154.546875 22.792969 "/>
<path style="fill-rule:nonzero;fill:rgb(69.803922%,85.098039%,100%);fill-opacity:1;stroke-width:0.929626;stroke-linecap:round;stroke-linejoin:round;stroke:rgb(0%,0%,0%);stroke-opacity:1;stroke-miterlimit:10;" d="M 213.0625 24.35 C 217.690625 28.98125 217.690625 36.484375 213.0625 41.1125 C 208.434375 45.74375 200.93125 45.74375 196.3 41.1125 C 191.671875 36.484375 191.671875 28.98125 196.3 24.35 C 200.93125 19.721875 208.434375 19.721875 213.0625 24.35 " transform="matrix(1.25,0,0,1.25,-43.75,-23.75)"/>
<path style=" stroke:none;fill-rule:nonzero;fill:rgb(0%,0%,0%);fill-opacity:1;" d="M 212.6875 15.664062 C 212.6875 14.667969 212.003906 14.082031 211.085938 14.082031 C 210.636719 14.082031 210.1875 14.179688 209.738281 14.414062 C 208.566406 15.058594 207.726562 16.347656 207.726562 17.597656 C 207.726562 18.574219 208.3125 19.160156 209.367188 19.160156 C 210.109375 19.160156 210.832031 18.886719 211.496094 18.242188 C 212.238281 17.5 212.6875 16.503906 212.6875 15.664062 Z M 211.730469 15.371094 C 211.730469 16.230469 211.417969 17.285156 210.910156 17.988281 C 210.460938 18.613281 210.03125 18.925781 209.542969 18.925781 C 209.015625 18.925781 208.664062 18.574219 208.664062 17.910156 C 208.664062 17.011719 208.976562 16.132812 209.503906 15.332031 C 209.953125 14.667969 210.441406 14.316406 210.929688 14.316406 C 211.417969 14.316406 211.730469 14.6875 211.730469 15.371094 Z M 211.730469 15.371094 "/>
<path style=" stroke:none;fill-rule:nonzero;fill:rgb(0%,0%,0%);fill-opacity:1;" d="M 216.59375 21.757812 L 216.496094 21.71875 C 216.242188 22.148438 216.085938 22.226562 215.773438 22.226562 L 214.015625 22.226562 L 215.246094 20.898438 C 215.910156 20.195312 216.203125 19.628906 216.203125 19.042969 C 216.203125 18.300781 215.675781 17.714844 214.816406 17.714844 C 213.898438 17.714844 213.429688 18.339844 213.273438 19.21875 L 213.429688 19.257812 C 213.722656 18.515625 213.976562 18.28125 214.523438 18.28125 C 215.167969 18.28125 215.558594 18.652344 215.558594 19.335938 C 215.558594 19.980469 215.304688 20.546875 214.582031 21.289062 L 213.253906 22.695312 L 213.253906 22.792969 L 216.183594 22.792969 Z M 216.59375 21.757812 "/>
<path style="fill-rule:nonzero;fill:rgb(69.803922%,85.098039%,100%);fill-opacity:1;stroke-width:0.929626;stroke-linecap:round;stroke-linejoin:round;stroke:rgb(0%,0%,0%);stroke-opacity:1;stroke-miterlimit:10;" d="M 262.215625 23.65625 C 266.84375 28.284375 266.84375 35.7875 262.215625 40.41875 C 257.5875 45.046875 250.08125 45.046875 245.453125 40.41875 C 240.825 35.7875 240.825 28.284375 245.453125 23.65625 C 250.08125 19.028125 257.5875 19.028125 262.215625 23.65625 " transform="matrix(1.25,0,0,1.25,-43.75,-23.75)"/>
<path style=" stroke:none;fill-rule:nonzero;fill:rgb(0%,0%,0%);fill-opacity:1;" d="M 274.128906 14.789062 C 274.128906 13.792969 273.445312 13.207031 272.527344 13.207031 C 272.078125 13.207031 271.628906 13.304688 271.179688 13.539062 C 270.007812 14.183594 269.167969 15.472656 269.167969 16.722656 C 269.167969 17.699219 269.753906 18.285156 270.808594 18.285156 C 271.550781 18.285156 272.273438 18.011719 272.9375 17.367188 C 273.679688 16.625 274.128906 15.628906 274.128906 14.789062 Z M 273.171875 14.496094 C 273.171875 15.355469 272.859375 16.410156 272.351562 17.113281 C 271.902344 17.738281 271.472656 18.050781 270.984375 18.050781 C 270.457031 18.050781 270.105469 17.699219 270.105469 17.035156 C 270.105469 16.136719 270.417969 15.257812 270.945312 14.457031 C 271.394531 13.792969 271.882812 13.441406 272.371094 13.441406 C 272.859375 13.441406 273.171875 13.8125 273.171875 14.496094 Z M 273.171875 14.496094 "/>
<path style=" stroke:none;fill-rule:nonzero;fill:rgb(0%,0%,0%);fill-opacity:1;" d="M 274.929688 18.089844 C 275.242188 17.542969 275.59375 17.289062 276.0625 17.289062 C 276.550781 17.289062 276.863281 17.5625 276.863281 18.070312 C 276.863281 18.519531 276.628906 18.851562 276.257812 19.066406 C 276.101562 19.164062 275.90625 19.242188 275.632812 19.339844 L 275.632812 19.4375 C 276.0625 19.4375 276.21875 19.457031 276.394531 19.515625 C 276.902344 19.671875 277.175781 20.042969 277.175781 20.609375 C 277.175781 21.234375 276.746094 21.761719 276.199219 21.761719 C 275.984375 21.761719 275.828125 21.722656 275.554688 21.527344 C 275.339844 21.371094 275.222656 21.332031 275.085938 21.332031 C 274.929688 21.332031 274.792969 21.429688 274.792969 21.585938 C 274.792969 21.859375 275.085938 22.015625 275.632812 22.015625 C 276.296875 22.015625 277 21.800781 277.371094 21.332031 C 277.585938 21.039062 277.722656 20.667969 277.722656 20.277344 C 277.722656 19.886719 277.585938 19.535156 277.390625 19.300781 C 277.234375 19.144531 277.097656 19.046875 276.765625 18.910156 C 277.253906 18.617188 277.449219 18.226562 277.449219 17.875 C 277.449219 17.269531 276.980469 16.839844 276.296875 16.839844 C 275.515625 16.839844 275.027344 17.347656 274.8125 18.070312 Z M 274.929688 18.089844 "/>
<path style="fill-rule:nonzero;fill:rgb(40%,74.901961%,100%);fill-opacity:1;stroke-width:0.929626;stroke-linecap:round;stroke-linejoin:round;stroke:rgb(0%,0%,0%);stroke-opacity:1;stroke-miterlimit:10;" d="M 128.234375 81.059375 C 132.8625 85.6875 132.8625 93.190625 128.234375 97.81875 C 123.60625 102.45 116.1 102.45 111.471875 97.81875 C 106.84375 93.190625 106.84375 85.6875 111.471875 81.059375 C 116.1 76.43125 123.60625 76.43125 128.234375 81.059375 " transform="matrix(1.25,0,0,1.25,-43.75,-23.75)"/>
<path style=" stroke:none;fill-rule:nonzero;fill:rgb(0%,0%,0%);fill-opacity:1;" d="M 106.613281 88.597656 C 106.007812 89.359375 105.871094 89.496094 105.695312 89.496094 C 105.578125 89.496094 105.5 89.417969 105.5 89.300781 C 105.5 89.164062 105.695312 88.480469 105.871094 87.894531 C 106.222656 86.839844 106.417969 86 106.417969 85.726562 C 106.417969 85.296875 106.203125 84.964844 105.695312 84.964844 C 104.992188 84.964844 104.113281 85.6875 103.097656 87.347656 L 104.464844 82.308594 L 104.386719 82.25 C 103.722656 82.386719 103.292969 82.464844 102.609375 82.542969 L 102.609375 82.71875 L 102.921875 82.71875 C 103.117188 82.71875 103.390625 82.796875 103.390625 82.992188 C 103.390625 83.148438 103.332031 83.34375 103.234375 83.695312 L 101.59375 89.925781 L 102.433594 89.925781 C 102.882812 88.1875 103.058594 87.796875 103.507812 87.113281 C 104.09375 86.214844 104.816406 85.53125 105.226562 85.53125 C 105.480469 85.53125 105.539062 85.648438 105.539062 85.824219 C 105.539062 85.863281 105.5 86.019531 105.460938 86.195312 L 104.835938 88.519531 C 104.699219 89.066406 104.621094 89.417969 104.621094 89.554688 C 104.621094 89.847656 104.816406 90.023438 105.109375 90.023438 C 105.695312 90.023438 106.066406 89.730469 106.75 88.753906 Z M 106.613281 88.597656 "/>
<path style=" stroke:none;fill-rule:nonzero;fill:rgb(0%,0%,0%);fill-opacity:1;" d="M 109.953125 93.675781 L 109.953125 93.558594 C 109.386719 93.558594 109.25 93.421875 109.25 93.109375 L 109.25 88.636719 L 109.171875 88.597656 L 107.84375 89.28125 L 107.84375 89.398438 L 108.039062 89.320312 C 108.175781 89.261719 108.292969 89.222656 108.371094 89.222656 C 108.527344 89.222656 108.605469 89.339844 108.605469 89.59375 L 108.605469 92.972656 C 108.605469 93.382812 108.449219 93.539062 107.882812 93.558594 L 107.882812 93.675781 Z M 109.953125 93.675781 "/>
<path style="fill-rule:nonzero;fill:rgb(40%,74.901961%,100%);fill-opacity:1;stroke-width:0.929626;stroke-linecap:round;stroke-linejoin:round;stroke:rgb(0%,0%,0%);stroke-opacity:1;stroke-miterlimit:10;" d="M 297.890625 81.059375 C 302.51875 85.6875 302.51875 93.190625 297.890625 97.81875 C 293.2625 102.45 285.75625 102.45 281.128125 97.81875 C 276.5 93.190625 276.5 85.6875 281.128125 81.059375 C 285.75625 76.43125 293.2625 76.43125 297.890625 81.059375 " transform="matrix(1.25,0,0,1.25,-43.75,-23.75)"/>
<path style=" stroke:none;fill-rule:nonzero;fill:rgb(0%,0%,0%);fill-opacity:1;" d="M 318.683594 88.597656 C 318.078125 89.359375 317.941406 89.496094 317.765625 89.496094 C 317.648438 89.496094 317.570312 89.417969 317.570312 89.300781 C 317.570312 89.164062 317.765625 88.480469 317.941406 87.894531 C 318.292969 86.839844 318.488281 86 318.488281 85.726562 C 318.488281 85.296875 318.273438 84.964844 317.765625 84.964844 C 317.0625 84.964844 316.183594 85.6875 315.167969 87.347656 L 316.535156 82.308594 L 316.457031 82.25 C 315.792969 82.386719 315.363281 82.464844 314.679688 82.542969 L 314.679688 82.71875 L 314.992188 82.71875 C 315.1875 82.71875 315.460938 82.796875 315.460938 82.992188 C 315.460938 83.148438 315.402344 83.34375 315.304688 83.695312 L 313.664062 89.925781 L 314.503906 89.925781 C 314.953125 88.1875 315.128906 87.796875 315.578125 87.113281 C 316.164062 86.214844 316.886719 85.53125 317.296875 85.53125 C 317.550781 85.53125 317.609375 85.648438 317.609375 85.824219 C 317.609375 85.863281 317.570312 86.019531 317.53125 86.195312 L 316.90625 88.519531 C 316.769531 89.066406 316.691406 89.417969 316.691406 89.554688 C 316.691406 89.847656 316.886719 90.023438 317.179688 90.023438 C 317.765625 90.023438 318.136719 89.730469 318.820312 88.753906 Z M 318.683594 88.597656 "/>
<path style=" stroke:none;fill-rule:nonzero;fill:rgb(0%,0%,0%);fill-opacity:1;" d="M 322.355469 88.558594 L 322.296875 88.519531 C 322.179688 88.675781 322.101562 88.714844 321.925781 88.714844 L 320.382812 88.714844 L 319.5625 90.492188 C 319.5625 90.492188 319.5625 90.511719 319.5625 90.53125 C 319.5625 90.570312 319.582031 90.589844 319.640625 90.589844 C 320.363281 90.589844 320.890625 90.824219 321.242188 91.117188 C 321.574219 91.371094 321.75 91.761719 321.75 92.230469 C 321.75 92.875 321.261719 93.5 320.734375 93.5 C 320.578125 93.5 320.402344 93.441406 320.207031 93.265625 C 319.953125 93.070312 319.816406 93.03125 319.640625 93.03125 C 319.425781 93.03125 319.308594 93.128906 319.308594 93.324219 C 319.308594 93.597656 319.699219 93.773438 320.265625 93.773438 C 320.773438 93.773438 321.183594 93.675781 321.535156 93.421875 C 322.042969 93.03125 322.277344 92.582031 322.277344 91.859375 C 322.277344 91.449219 322.199219 91.175781 322.003906 90.902344 C 321.574219 90.316406 321.203125 90.140625 320.128906 89.945312 L 320.441406 89.300781 L 321.886719 89.300781 C 322.003906 89.300781 322.0625 89.261719 322.082031 89.203125 Z M 322.355469 88.558594 "/>
<path style="fill:none;stroke-width:0.929626;stroke-linecap:round;stroke-linejoin:round;stroke:rgb(0%,0%,0%);stroke-opacity:1;stroke-miterlimit:10;" d="M 126.1625 79.40625 L 146.275 47.440625 " transform="matrix(1.25,0,0,1.25,-43.75,-23.75)"/>
<path style="fill:none;stroke-width:0.929626;stroke-linecap:butt;stroke-linejoin:miter;stroke:rgb(0%,0%,0%);stroke-opacity:1;stroke-miterlimit:10;" d="M 148.253125 44.29375 L 146.275 47.440625 M 145.09375 46.7 L 148.253125 44.29375 L 147.45625 48.184375 " transform="matrix(1.25,0,0,1.25,-43.75,-23.75)"/>
<path style="fill:none;stroke-width:0.929626;stroke-linecap:round;stroke-linejoin:round;stroke:rgb(0%,0%,0%);stroke-opacity:1;stroke-miterlimit:10;" d="M 129.70625 82.85 L 190.2375 42.390625 " transform="matrix(1.25,0,0,1.25,-43.75,-23.75)"/>
<path style="fill:none;stroke-width:0.929626;stroke-linecap:butt;stroke-linejoin:miter;stroke:rgb(0%,0%,0%);stroke-opacity:1;stroke-miterlimit:10;" d="M 193.328125 40.325 L 190.2375 42.390625 M 189.4625 41.23125 L 193.328125 40.325 L 191.0125 43.546875 " transform="matrix(1.25,0,0,1.25,-43.75,-23.75)"/>
<path style="fill:none;stroke-width:0.929626;stroke-linecap:round;stroke-linejoin:round;stroke:rgb(0%,0%,0%);stroke-opacity:1;stroke-miterlimit:10;" d="M 130.75 84.76875 L 237.8625 38.878125 " transform="matrix(1.25,0,0,1.25,-43.75,-23.75)"/>
<path style="fill:none;stroke-width:0.929626;stroke-linecap:butt;stroke-linejoin:miter;stroke:rgb(0%,0%,0%);stroke-opacity:1;stroke-miterlimit:10;" d="M 241.28125 37.4125 L 237.8625 38.878125 M 237.3125 37.596875 L 241.28125 37.4125 L 238.4125 40.159375 " transform="matrix(1.25,0,0,1.25,-43.75,-23.75)"/>
<path style="fill:none;stroke-width:0.929626;stroke-linecap:round;stroke-linejoin:round;stroke:rgb(0%,0%,0%);stroke-opacity:1;stroke-miterlimit:10;" d="M 160.86875 77.66875 L 157.578125 49.984375 " transform="matrix(1.25,0,0,1.25,-43.75,-23.75)"/>
<path style="fill:none;stroke-width:0.929626;stroke-linecap:butt;stroke-linejoin:miter;stroke:rgb(0%,0%,0%);stroke-opacity:1;stroke-miterlimit:10;" d="M 157.140625 46.29375 L 157.578125 49.984375 M 156.190625 50.15 L 157.140625 46.29375 L 158.9625 49.81875 " transform="matrix(1.25,0,0,1.25,-43.75,-23.75)"/>
<path style="fill:none;stroke-width:0.929626;stroke-linecap:round;stroke-linejoin:round;stroke:rgb(0%,0%,0%);stroke-opacity:1;stroke-miterlimit:10;" d="M 169.36875 79.95 L 194.275 46.64375 " transform="matrix(1.25,0,0,1.25,-43.75,-23.75)"/>
<path style="fill:none;stroke-width:0.929626;stroke-linecap:butt;stroke-linejoin:miter;stroke:rgb(0%,0%,0%);stroke-opacity:1;stroke-miterlimit:10;" d="M 196.503125 43.66875 L 194.275 46.64375 M 193.15625 45.8125 L 196.503125 43.66875 L 195.390625 47.48125 " transform="matrix(1.25,0,0,1.25,-43.75,-23.75)"/>
<path style="fill:none;stroke-width:0.929626;stroke-linecap:round;stroke-linejoin:round;stroke:rgb(0%,0%,0%);stroke-opacity:1;stroke-miterlimit:10;" d="M 172.3125 83.14375 L 239.1125 41.265625 " transform="matrix(1.25,0,0,1.25,-43.75,-23.75)"/>
<path style="fill:none;stroke-width:0.929626;stroke-linecap:butt;stroke-linejoin:miter;stroke:rgb(0%,0%,0%);stroke-opacity:1;stroke-miterlimit:10;" d="M 242.265625 39.2875 L 239.1125 41.265625 M 238.371875 40.08125 L 242.265625 39.2875 L 239.85625 42.44375 " transform="matrix(1.25,0,0,1.25,-43.75,-23.75)"/>
<path style="fill:none;stroke-width:0.929626;stroke-linecap:round;stroke-linejoin:round;stroke:rgb(0%,0%,0%);stroke-opacity:1;stroke-miterlimit:10;" d="M 196.91875 80.484375 L 166.90625 45.859375 " transform="matrix(1.25,0,0,1.25,-43.75,-23.75)"/>
<path style="fill:none;stroke-width:0.929626;stroke-linecap:butt;stroke-linejoin:miter;stroke:rgb(0%,0%,0%);stroke-opacity:1;stroke-miterlimit:10;" d="M 164.471875 43.05 L 166.90625 45.859375 M 165.85 46.775 L 164.471875 43.05 L 167.9625 44.95 " transform="matrix(1.25,0,0,1.25,-43.75,-23.75)"/>
<path style="fill:none;stroke-width:0.929626;stroke-linecap:round;stroke-linejoin:round;stroke:rgb(0%,0%,0%);stroke-opacity:1;stroke-miterlimit:10;" d="M 204.68125 77.5875 L 204.68125 50.10625 " transform="matrix(1.25,0,0,1.25,-43.75,-23.75)"/>
<path style="fill:none;stroke-width:0.929626;stroke-linecap:butt;stroke-linejoin:miter;stroke:rgb(0%,0%,0%);stroke-opacity:1;stroke-miterlimit:10;" d="M 204.68125 46.3875 L 204.68125 50.10625 M 203.284375 50.10625 L 204.68125 46.3875 L 206.075 50.10625 " transform="matrix(1.25,0,0,1.25,-43.75,-23.75)"/>
<path style="fill:none;stroke-width:0.929626;stroke-linecap:round;stroke-linejoin:round;stroke:rgb(0%,0%,0%);stroke-opacity:1;stroke-miterlimit:10;" d="M 212.390625 80.4375 L 242.534375 45.23125 " transform="matrix(1.25,0,0,1.25,-43.75,-23.75)"/>
<path style="fill:none;stroke-width:0.929626;stroke-linecap:butt;stroke-linejoin:miter;stroke:rgb(0%,0%,0%);stroke-opacity:1;stroke-miterlimit:10;" d="M 244.953125 42.40625 L 242.534375 45.23125 M 241.475 44.325 L 244.953125 42.40625 L 243.59375 46.140625 " transform="matrix(1.25,0,0,1.25,-43.75,-23.75)"/>
<path style="fill:none;stroke-width:0.929626;stroke-linecap:round;stroke-linejoin:round;stroke:rgb(0%,0%,0%);stroke-opacity:1;stroke-miterlimit:10;" d="M 237.015625 83.2 L 170.3 41.88125 " transform="matrix(1.25,0,0,1.25,-43.75,-23.75)"/>
<path style="fill:none;stroke-width:0.929626;stroke-linecap:butt;stroke-linejoin:miter;stroke:rgb(0%,0%,0%);stroke-opacity:1;stroke-miterlimit:10;" d="M 167.1375 39.921875 L 170.3 41.88125 M 169.565625 43.065625 L 167.1375 39.921875 L 171.034375 40.69375 " transform="matrix(1.25,0,0,1.25,-43.75,-23.75)"/>
<path style="fill:none;stroke-width:0.929626;stroke-linecap:round;stroke-linejoin:round;stroke:rgb(0%,0%,0%);stroke-opacity:1;stroke-miterlimit:10;" d="M 239.996875 79.95 L 215.0875 46.64375 " transform="matrix(1.25,0,0,1.25,-43.75,-23.75)"/>
<path style="fill:none;stroke-width:0.929626;stroke-linecap:butt;stroke-linejoin:miter;stroke:rgb(0%,0%,0%);stroke-opacity:1;stroke-miterlimit:10;" d="M 212.859375 43.66875 L 215.0875 46.64375 M 213.971875 47.48125 L 212.859375 43.66875 L 216.203125 45.8125 " transform="matrix(1.25,0,0,1.25,-43.75,-23.75)"/>
<path style="fill:none;stroke-width:0.929626;stroke-linecap:round;stroke-linejoin:round;stroke:rgb(0%,0%,0%);stroke-opacity:1;stroke-miterlimit:10;" d="M 248.475 77.66875 L 251.809375 49.2875 " transform="matrix(1.25,0,0,1.25,-43.75,-23.75)"/>
<path style="fill:none;stroke-width:0.929626;stroke-linecap:butt;stroke-linejoin:miter;stroke:rgb(0%,0%,0%);stroke-opacity:1;stroke-miterlimit:10;" d="M 252.24375 45.596875 L 251.809375 49.2875 M 250.425 49.128125 L 252.24375 45.596875 L 253.19375 49.453125 " transform="matrix(1.25,0,0,1.25,-43.75,-23.75)"/>
<path style="fill:none;stroke-width:0.929626;stroke-linecap:round;stroke-linejoin:round;stroke:rgb(0%,0%,0%);stroke-opacity:1;stroke-miterlimit:10;" d="M 278.590625 84.81875 L 171.528125 39.503125 " transform="matrix(1.25,0,0,1.25,-43.75,-23.75)"/>
<path style="fill:none;stroke-width:0.929626;stroke-linecap:butt;stroke-linejoin:miter;stroke:rgb(0%,0%,0%);stroke-opacity:1;stroke-miterlimit:10;" d="M 168.10625 38.05625 L 171.528125 39.503125 M 170.984375 40.7875 L 168.10625 38.05625 L 172.075 38.221875 " transform="matrix(1.25,0,0,1.25,-43.75,-23.75)"/>
<path style="fill:none;stroke-width:0.929626;stroke-linecap:round;stroke-linejoin:round;stroke:rgb(0%,0%,0%);stroke-opacity:1;stroke-miterlimit:10;" d="M 279.653125 82.85 L 219.125 42.390625 " transform="matrix(1.25,0,0,1.25,-43.75,-23.75)"/>
<path style="fill:none;stroke-width:0.929626;stroke-linecap:butt;stroke-linejoin:miter;stroke:rgb(0%,0%,0%);stroke-opacity:1;stroke-miterlimit:10;" d="M 216.034375 40.325 L 219.125 42.390625 M 218.35 43.546875 L 216.034375 40.325 L 219.903125 41.23125 " transform="matrix(1.25,0,0,1.25,-43.75,-23.75)"/>
<path style="fill:none;stroke-width:0.929626;stroke-linecap:round;stroke-linejoin:round;stroke:rgb(0%,0%,0%);stroke-opacity:1;stroke-miterlimit:10;" d="M 283.25 79.371875 L 263.00625 46.79375 " transform="matrix(1.25,0,0,1.25,-43.75,-23.75)"/>
<path style="fill:none;stroke-width:0.929626;stroke-linecap:butt;stroke-linejoin:miter;stroke:rgb(0%,0%,0%);stroke-opacity:1;stroke-miterlimit:10;" d="M 261.04375 43.6375 L 263.00625 46.79375 M 261.81875 47.53125 L 261.04375 43.6375 L 264.190625 46.059375 " transform="matrix(1.25,0,0,1.25,-43.75,-23.75)"/>
<path style="fill:none;stroke-width:0.929626;stroke-linecap:round;stroke-linejoin:round;stroke:rgb(0%,0%,0%);stroke-opacity:1;stroke-miterlimit:10;" d="M 129.1875 134.5375 L 123.375 106.453125 " transform="matrix(1.25,0,0,1.25,-43.75,-23.75)"/>
<path style="fill:none;stroke-width:0.929626;stroke-linecap:butt;stroke-linejoin:miter;stroke:rgb(0%,0%,0%);stroke-opacity:1;stroke-miterlimit:10;" d="M 122.621875 102.8125 L 123.375 106.453125 M 122.00625 106.734375 L 122.621875 102.8125 L 124.7375 106.171875 " transform="matrix(1.25,0,0,1.25,-43.75,-23.75)"/>
<path style="fill:none;stroke-width:0.929626;stroke-linecap:round;stroke-linejoin:round;stroke:rgb(0%,0%,0%);stroke-opacity:1;stroke-miterlimit:10;" d="M 137.23125 135.71875 L 154 104.721875 " transform="matrix(1.25,0,0,1.25,-43.75,-23.75)"/>
<path style="fill:none;stroke-width:0.929626;stroke-linecap:butt;stroke-linejoin:miter;stroke:rgb(0%,0%,0%);stroke-opacity:1;stroke-miterlimit:10;" d="M 155.76875 101.453125 L 154 104.721875 M 152.775 104.059375 L 155.76875 101.453125 L 155.225 105.3875 " transform="matrix(1.25,0,0,1.25,-43.75,-23.75)"/>
<path style="fill:none;stroke-width:0.929626;stroke-linecap:round;stroke-linejoin:round;stroke:rgb(0%,0%,0%);stroke-opacity:1;stroke-miterlimit:10;" d="M 140.95625 138.88125 L 190.953125 100.090625 " transform="matrix(1.25,0,0,1.25,-43.75,-23.75)"/>
<path style="fill:none;stroke-width:0.929626;stroke-linecap:butt;stroke-linejoin:miter;stroke:rgb(0%,0%,0%);stroke-opacity:1;stroke-miterlimit:10;" d="M 193.890625 97.8125 L 190.953125 100.090625 M 190.096875 98.9875 L 193.890625 97.8125 L 191.809375 101.190625 " transform="matrix(1.25,0,0,1.25,-43.75,-23.75)"/>
<path style="fill:none;stroke-width:0.929626;stroke-linecap:round;stroke-linejoin:round;stroke:rgb(0%,0%,0%);stroke-opacity:1;stroke-miterlimit:10;" d="M 142.23125 140.921875 L 231.496875 97.096875 " transform="matrix(1.25,0,0,1.25,-43.75,-23.75)"/>
<path style="fill:none;stroke-width:0.929626;stroke-linecap:butt;stroke-linejoin:miter;stroke:rgb(0%,0%,0%);stroke-opacity:1;stroke-miterlimit:10;" d="M 234.8375 95.45625 L 231.496875 97.096875 M 230.88125 95.846875 L 234.8375 95.45625 L 232.1125 98.346875 " transform="matrix(1.25,0,0,1.25,-43.75,-23.75)"/>
<path style="fill:none;stroke-width:0.929626;stroke-linecap:round;stroke-linejoin:round;stroke:rgb(0%,0%,0%);stroke-opacity:1;stroke-miterlimit:10;" d="M 142.746875 142.140625 L 273.15625 95.3125 " transform="matrix(1.25,0,0,1.25,-43.75,-23.75)"/>
<path style="fill:none;stroke-width:0.929626;stroke-linecap:butt;stroke-linejoin:miter;stroke:rgb(0%,0%,0%);stroke-opacity:1;stroke-miterlimit:10;" d="M 276.65625 94.05625 L 273.15625 95.3125 M 272.684375 94 L 276.65625 94.05625 L 273.628125 96.625 " transform="matrix(1.25,0,0,1.25,-43.75,-23.75)"/>
<path style="fill:none;stroke-width:0.929626;stroke-linecap:round;stroke-linejoin:round;stroke:rgb(0%,0%,0%);stroke-opacity:1;stroke-miterlimit:10;" d="M 172.06875 138.06875 L 132.565625 101.28125 " transform="matrix(1.25,0,0,1.25,-43.75,-23.75)"/>
<path style="fill:none;stroke-width:0.929626;stroke-linecap:butt;stroke-linejoin:miter;stroke:rgb(0%,0%,0%);stroke-opacity:1;stroke-miterlimit:10;" d="M 129.84375 98.746875 L 132.565625 101.28125 M 131.61875 102.3 L 129.84375 98.746875 L 133.515625 100.25625 " transform="matrix(1.25,0,0,1.25,-43.75,-23.75)"/>
<path style="fill:none;stroke-width:0.929626;stroke-linecap:round;stroke-linejoin:round;stroke:rgb(0%,0%,0%);stroke-opacity:1;stroke-miterlimit:10;" d="M 177.06875 134.875 L 167.65 105.9625 " transform="matrix(1.25,0,0,1.25,-43.75,-23.75)"/>
<path style="fill:none;stroke-width:0.929626;stroke-linecap:butt;stroke-linejoin:miter;stroke:rgb(0%,0%,0%);stroke-opacity:1;stroke-miterlimit:10;" d="M 166.496875 102.425 L 167.65 105.9625 M 166.325 106.390625 L 166.496875 102.425 L 168.975 105.528125 " transform="matrix(1.25,0,0,1.25,-43.75,-23.75)"/>
<path style="fill:none;stroke-width:0.929626;stroke-linecap:round;stroke-linejoin:round;stroke:rgb(0%,0%,0%);stroke-opacity:1;stroke-miterlimit:10;" d="M 185.35625 135.225 L 197.921875 105.45 " transform="matrix(1.25,0,0,1.25,-43.75,-23.75)"/>
<path style="fill:none;stroke-width:0.929626;stroke-linecap:butt;stroke-linejoin:miter;stroke:rgb(0%,0%,0%);stroke-opacity:1;stroke-miterlimit:10;" d="M 199.371875 102.025 L 197.921875 105.45 M 196.640625 104.90625 L 199.371875 102.025 L 199.20625 105.99375 " transform="matrix(1.25,0,0,1.25,-43.75,-23.75)"/>
<path style="fill:none;stroke-width:0.929626;stroke-linecap:round;stroke-linejoin:round;stroke:rgb(0%,0%,0%);stroke-opacity:1;stroke-miterlimit:10;" d="M 189.753125 138.44375 L 233.8875 100.725 " transform="matrix(1.25,0,0,1.25,-43.75,-23.75)"/>
<path style="fill:none;stroke-width:0.929626;stroke-linecap:butt;stroke-linejoin:miter;stroke:rgb(0%,0%,0%);stroke-opacity:1;stroke-miterlimit:10;" d="M 236.715625 98.3125 L 233.8875 100.725 M 232.98125 99.66875 L 236.715625 98.3125 L 234.79375 101.7875 " transform="matrix(1.25,0,0,1.25,-43.75,-23.75)"/>
<path style="fill:none;stroke-width:0.929626;stroke-linecap:round;stroke-linejoin:round;stroke:rgb(0%,0%,0%);stroke-opacity:1;stroke-miterlimit:10;" d="M 191.25625 140.66875 L 274.1 97.471875 " transform="matrix(1.25,0,0,1.25,-43.75,-23.75)"/>
<path style="fill:none;stroke-width:0.929626;stroke-linecap:butt;stroke-linejoin:miter;stroke:rgb(0%,0%,0%);stroke-opacity:1;stroke-miterlimit:10;" d="M 277.4 95.753125 L 274.1 97.471875 M 273.45625 96.2375 L 277.4 95.753125 L 274.746875 98.7125 " transform="matrix(1.25,0,0,1.25,-43.75,-23.75)"/>
<path style="fill:none;stroke-width:0.929626;stroke-linecap:round;stroke-linejoin:round;stroke:rgb(0%,0%,0%);stroke-opacity:1;stroke-miterlimit:10;" d="M 219.359375 140.715625 L 135.296875 97.4 " transform="matrix(1.25,0,0,1.25,-43.75,-23.75)"/>
<path style="fill:none;stroke-width:0.929626;stroke-linecap:butt;stroke-linejoin:miter;stroke:rgb(0%,0%,0%);stroke-opacity:1;stroke-miterlimit:10;" d="M 131.99375 95.69375 L 135.296875 97.4 M 134.659375 98.640625 L 131.99375 95.69375 L 135.9375 96.159375 " transform="matrix(1.25,0,0,1.25,-43.75,-23.75)"/>
<path style="fill:none;stroke-width:0.929626;stroke-linecap:round;stroke-linejoin:round;stroke:rgb(0%,0%,0%);stroke-opacity:1;stroke-miterlimit:10;" d="M 220.8125 138.53125 L 175.578125 100.6 " transform="matrix(1.25,0,0,1.25,-43.75,-23.75)"/>
<path style="fill:none;stroke-width:0.929626;stroke-linecap:butt;stroke-linejoin:miter;stroke:rgb(0%,0%,0%);stroke-opacity:1;stroke-miterlimit:10;" d="M 172.73125 98.215625 L 175.578125 100.6 M 174.684375 101.671875 L 172.73125 98.215625 L 176.475 99.534375 " transform="matrix(1.25,0,0,1.25,-43.75,-23.75)"/>
<path style="fill:none;stroke-width:0.929626;stroke-linecap:round;stroke-linejoin:round;stroke:rgb(0%,0%,0%);stroke-opacity:1;stroke-miterlimit:10;" d="M 225.08125 135.3125 L 211.74375 105.315625 " transform="matrix(1.25,0,0,1.25,-43.75,-23.75)"/>
<path style="fill:none;stroke-width:0.929626;stroke-linecap:butt;stroke-linejoin:miter;stroke:rgb(0%,0%,0%);stroke-opacity:1;stroke-miterlimit:10;" d="M 210.23125 101.91875 L 211.74375 105.315625 M 210.46875 105.88125 L 210.23125 101.91875 L 213.015625 104.75 " transform="matrix(1.25,0,0,1.25,-43.75,-23.75)"/>
<path style="fill:none;stroke-width:0.929626;stroke-linecap:round;stroke-linejoin:round;stroke:rgb(0%,0%,0%);stroke-opacity:1;stroke-miterlimit:10;" d="M 233.340625 134.8 L 242.05 106.065625 " transform="matrix(1.25,0,0,1.25,-43.75,-23.75)"/>
<path style="fill:none;stroke-width:0.929626;stroke-linecap:butt;stroke-linejoin:miter;stroke:rgb(0%,0%,0%);stroke-opacity:1;stroke-miterlimit:10;" d="M 243.13125 102.50625 L 242.05 106.065625 M 240.71875 105.6625 L 243.13125 102.50625 L 243.3875 106.471875 " transform="matrix(1.25,0,0,1.25,-43.75,-23.75)"/>
<path style="fill:none;stroke-width:0.929626;stroke-linecap:round;stroke-linejoin:round;stroke:rgb(0%,0%,0%);stroke-opacity:1;stroke-miterlimit:10;" d="M 238.484375 137.975 L 276.921875 101.4125 " transform="matrix(1.25,0,0,1.25,-43.75,-23.75)"/>
<path style="fill:none;stroke-width:0.929626;stroke-linecap:butt;stroke-linejoin:miter;stroke:rgb(0%,0%,0%);stroke-opacity:1;stroke-miterlimit:10;" d="M 279.61875 98.85 L 276.921875 101.4125 M 275.9625 100.403125 L 279.61875 98.85 L 277.88125 102.425 " transform="matrix(1.25,0,0,1.25,-43.75,-23.75)"/>
<path style="fill:none;stroke-width:0.929626;stroke-linecap:round;stroke-linejoin:round;stroke:rgb(0%,0%,0%);stroke-opacity:1;stroke-miterlimit:10;" d="M 267.86875 141.515625 L 136.24375 95.20625 " transform="matrix(1.25,0,0,1.25,-43.75,-23.75)"/>
<path style="fill:none;stroke-width:0.929626;stroke-linecap:butt;stroke-linejoin:miter;stroke:rgb(0%,0%,0%);stroke-opacity:1;stroke-miterlimit:10;" d="M 132.734375 93.971875 L 136.24375 95.20625 M 135.78125 96.525 L 132.734375 93.971875 L 136.70625 93.890625 " transform="matrix(1.25,0,0,1.25,-43.75,-23.75)"/>
<path style="fill:none;stroke-width:0.929626;stroke-linecap:round;stroke-linejoin:round;stroke:rgb(0%,0%,0%);stroke-opacity:1;stroke-miterlimit:10;" d="M 268.359375 140.325 L 177.934375 96.953125 " transform="matrix(1.25,0,0,1.25,-43.75,-23.75)"/>
<path style="fill:none;stroke-width:0.929626;stroke-linecap:butt;stroke-linejoin:miter;stroke:rgb(0%,0%,0%);stroke-opacity:1;stroke-miterlimit:10;" d="M 174.58125 95.346875 L 177.934375 96.953125 M 177.33125 98.2125 L 174.58125 95.346875 L 178.5375 95.69375 " transform="matrix(1.25,0,0,1.25,-43.75,-23.75)"/>
<path style="fill:none;stroke-width:0.929626;stroke-linecap:round;stroke-linejoin:round;stroke:rgb(0%,0%,0%);stroke-opacity:1;stroke-miterlimit:10;" d="M 269.58125 138.31875 L 218.559375 99.890625 " transform="matrix(1.25,0,0,1.25,-43.75,-23.75)"/>
<path style="fill:none;stroke-width:0.929626;stroke-linecap:butt;stroke-linejoin:miter;stroke:rgb(0%,0%,0%);stroke-opacity:1;stroke-miterlimit:10;" d="M 215.590625 97.65625 L 218.559375 99.890625 M 217.721875 101.00625 L 215.590625 97.65625 L 219.4 98.778125 " transform="matrix(1.25,0,0,1.25,-43.75,-23.75)"/>
<path style="fill:none;stroke-width:0.929626;stroke-linecap:round;stroke-linejoin:round;stroke:rgb(0%,0%,0%);stroke-opacity:1;stroke-miterlimit:10;" d="M 273.175 135.153125 L 255.70625 104.53125 " transform="matrix(1.25,0,0,1.25,-43.75,-23.75)"/>
<path style="fill:none;stroke-width:0.929626;stroke-linecap:butt;stroke-linejoin:miter;stroke:rgb(0%,0%,0%);stroke-opacity:1;stroke-miterlimit:10;" d="M 253.8625 101.3 L 255.70625 104.53125 M 254.496875 105.221875 L 253.8625 101.3 L 256.91875 103.840625 " transform="matrix(1.25,0,0,1.25,-43.75,-23.75)"/>
<path style="fill:none;stroke-width:0.929626;stroke-linecap:round;stroke-linejoin:round;stroke:rgb(0%,0%,0%);stroke-opacity:1;stroke-miterlimit:10;" d="M 281.225 133.796875 L 286.31875 106.51875 " transform="matrix(1.25,0,0,1.25,-43.75,-23.75)"/>
<path style="fill:none;stroke-width:0.929626;stroke-linecap:butt;stroke-linejoin:miter;stroke:rgb(0%,0%,0%);stroke-opacity:1;stroke-miterlimit:10;" d="M 287.003125 102.8625 L 286.31875 106.51875 M 284.95 106.2625 L 287.003125 102.8625 L 287.690625 106.775 " transform="matrix(1.25,0,0,1.25,-43.75,-23.75)"/>
</g>
</svg>
